<?xml version="1.0" standalone="no"?>
<!DOCTYPE svg PUBLIC "-//W3C//DTD SVG 20010904//EN"
 "http://www.w3.org/TR/2001/REC-SVG-20010904/DTD/svg10.dtd">
<svg version="1.0" xmlns="http://www.w3.org/2000/svg"
 width="2400.000000pt" height="2400.000000pt" viewBox="0 0 2400.000000 2400.000000"
 preserveAspectRatio="xMidYMid meet">
<metadata>
Created by potrace 1.14, written by Peter Selinger 2001-2017
</metadata>
<g transform="translate(0.000000,2400.000000) scale(0.100000,-0.100000)"
fill="#000000" stroke="none">
<path d="M17048 20355 c-1 -1 -59 -5 -128 -9 -124 -7 -157 -9 -300 -22 -41 -3
-93 -8 -115 -9 -115 -10 -204 -19 -275 -30 -14 -2 -54 -7 -90 -10 -36 -4 -72
-8 -80 -10 -8 -1 -40 -6 -70 -10 -30 -4 -64 -9 -75 -11 -11 -2 -40 -7 -65 -9
-25 -3 -52 -8 -60 -10 -8 -2 -33 -7 -55 -10 -23 -3 -52 -8 -65 -10 -14 -3 -43
-8 -65 -11 -22 -4 -107 -20 -190 -36 -82 -16 -161 -31 -175 -34 -30 -6 -260
-56 -380 -83 -47 -11 -123 -29 -170 -41 -47 -12 -93 -23 -102 -25 -82 -17
-527 -142 -803 -226 -509 -156 -1211 -403 -1775 -624 -295 -115 -657 -258
-685 -270 -16 -8 -64 -27 -105 -43 -118 -46 -822 -332 -855 -347 -16 -7 -64
-27 -105 -43 -41 -16 -232 -92 -425 -170 -192 -77 -429 -170 -525 -207 -96
-36 -195 -75 -220 -85 -96 -40 -650 -240 -665 -240 -4 0 -21 -6 -38 -14 -18
-8 -133 -47 -257 -86 -124 -40 -234 -76 -245 -81 -23 -10 -518 -153 -580 -167
-22 -6 -94 -24 -160 -40 -66 -17 -135 -34 -154 -37 -19 -3 -37 -8 -41 -10 -4
-2 -22 -7 -41 -10 -19 -3 -50 -10 -69 -15 -19 -5 -46 -11 -60 -14 -14 -2 -63
-12 -110 -21 -47 -9 -96 -18 -110 -21 -14 -2 -47 -9 -75 -14 -27 -5 -63 -11
-80 -14 -16 -2 -59 -9 -95 -15 -36 -5 -85 -13 -110 -16 -25 -3 -56 -8 -70 -10
-31 -5 -105 -13 -185 -20 -33 -4 -80 -8 -105 -11 -269 -27 -854 -26 -1095 1
-22 3 -59 7 -82 10 -24 3 -64 7 -90 10 -27 4 -70 10 -98 15 -27 5 -66 11 -85
14 -330 48 -815 196 -1190 362 -74 32 -393 192 -460 231 -136 77 -287 171
-465 289 -203 134 -272 172 -380 213 -33 13 -69 26 -80 31 -18 7 -72 20 -145
36 -184 39 -403 35 -600 -12 -325 -78 -626 -288 -817 -570 -207 -306 -283
-685 -208 -1047 55 -264 179 -496 366 -687 98 -100 151 -141 354 -277 668
-447 1296 -759 2019 -1005 65 -22 124 -41 130 -42 6 -2 45 -13 86 -26 41 -13
80 -25 85 -26 195 -57 672 -167 820 -189 80 -12 130 -20 190 -31 36 -7 248
-33 310 -39 33 -3 74 -8 90 -10 287 -38 1010 -48 1360 -20 123 10 205 16 265
21 36 2 79 6 95 9 17 3 57 7 90 10 33 3 71 7 85 10 14 2 52 7 85 10 33 4 67 8
75 10 8 2 42 7 75 11 33 3 62 8 65 9 3 2 30 6 60 10 30 4 127 20 215 36 219
40 238 43 281 53 12 2 37 7 56 10 154 24 1108 266 1148 291 4 2 17 6 31 9 28
5 497 154 508 160 4 3 18 7 32 10 13 3 58 17 99 31 41 15 172 61 290 102 266
93 661 238 717 264 24 10 46 19 50 19 6 0 296 111 338 130 11 5 97 38 190 75
94 36 179 70 190 75 21 10 283 115 450 182 55 22 119 48 142 59 24 10 46 19
49 19 3 0 20 6 37 14 89 38 152 64 379 156 136 55 249 100 253 100 3 0 24 9
48 19 23 11 112 47 197 81 85 33 164 65 175 70 19 9 260 103 435 170 41 16
104 40 140 53 483 186 1368 489 1550 531 9 2 54 16 101 30 70 21 223 64 289
80 8 2 80 21 160 41 80 20 152 38 160 40 8 2 65 15 125 29 117 27 433 90 500
100 22 3 51 8 65 11 14 2 43 7 65 10 22 3 47 7 55 10 8 2 40 6 71 10 31 3 67
8 80 10 13 3 44 7 69 10 43 5 102 12 165 20 17 2 68 7 115 11 47 3 96 8 110 9
215 27 872 26 1155 -1 33 -3 78 -7 100 -9 36 -2 159 -18 255 -31 72 -10 227
-36 268 -45 23 -5 59 -12 80 -15 20 -3 55 -10 77 -16 22 -5 50 -12 63 -14 111
-21 449 -116 640 -180 341 -116 789 -314 1107 -491 50 -28 113 -63 140 -78 77
-43 356 -215 392 -241 17 -13 35 -24 38 -24 4 0 24 -13 45 -30 21 -16 42 -30
48 -30 6 0 12 -4 14 -8 2 -4 48 -39 103 -76 55 -38 168 -119 250 -181 200
-148 230 -168 324 -215 135 -67 217 -94 411 -136 14 -3 90 -8 170 -11 294 -11
563 66 816 233 149 98 337 299 419 446 126 226 188 452 189 693 0 65 -10 199
-18 237 -69 326 -198 566 -416 772 -91 85 -402 318 -650 486 -52 36 -96 68
-98 72 -2 5 -8 8 -13 8 -4 0 -48 26 -96 59 -346 230 -763 468 -1167 666 -186
91 -526 245 -542 245 -3 0 -24 9 -47 19 -190 86 -824 305 -1034 356 -10 3
-116 29 -237 59 -120 31 -230 57 -245 60 -14 3 -93 18 -176 35 -82 16 -163 32
-180 35 -174 28 -287 45 -322 50 -109 14 -294 35 -348 41 -33 3 -76 7 -95 10
-19 2 -75 7 -125 10 -49 4 -115 9 -145 11 -63 5 -977 14 -982 9z"/>
<path d="M17138 15015 c-1 -1 -73 -6 -158 -10 -85 -3 -175 -8 -200 -10 -25 -2
-84 -6 -131 -10 -47 -3 -99 -8 -115 -10 -16 -1 -60 -6 -99 -9 -38 -4 -86 -9
-105 -11 -19 -2 -60 -7 -90 -10 -30 -3 -68 -8 -85 -10 -28 -4 -174 -24 -220
-30 -11 -2 -37 -6 -57 -9 -21 -3 -55 -9 -75 -12 -21 -3 -49 -7 -63 -10 -14 -2
-52 -8 -85 -14 -33 -5 -71 -12 -85 -15 -14 -3 -45 -8 -70 -11 -25 -3 -48 -8
-52 -10 -4 -3 -22 -7 -40 -9 -27 -4 -335 -67 -388 -80 -8 -2 -55 -12 -105 -24
-227 -51 -609 -150 -850 -221 -77 -23 -153 -45 -170 -50 -96 -25 -706 -221
-750 -240 -11 -5 -81 -30 -155 -55 -156 -54 -500 -179 -710 -258 -290 -110
-897 -348 -975 -383 -16 -7 -147 -60 -290 -118 -143 -57 -336 -135 -430 -174
-93 -38 -296 -120 -450 -181 -154 -62 -298 -121 -321 -132 -23 -10 -45 -19
-49 -19 -4 0 -21 -6 -38 -14 -18 -8 -126 -51 -242 -95 -115 -45 -219 -86 -230
-90 -60 -27 -448 -169 -775 -286 -214 -76 -816 -270 -865 -279 -5 -1 -26 -7
-45 -14 -54 -18 -491 -132 -530 -138 -19 -3 -38 -8 -42 -10 -21 -13 -569 -119
-718 -139 -25 -3 -72 -10 -105 -15 -33 -5 -85 -11 -115 -15 -30 -3 -71 -8 -90
-10 -67 -9 -239 -23 -375 -30 -115 -7 -518 -7 -615 0 -115 7 -204 15 -240 20
-19 2 -60 7 -90 10 -30 3 -66 7 -80 9 -14 2 -45 7 -70 10 -53 8 -95 15 -130
21 -14 3 -38 7 -55 10 -248 40 -758 193 -990 295 -22 10 -74 32 -115 50 -275
118 -597 298 -930 520 -96 64 -200 130 -230 147 -136 76 -361 144 -525 158
-79 7 -225 7 -270 0 -16 -2 -48 -7 -70 -10 -109 -15 -248 -57 -360 -109 -723
-334 -1017 -1191 -650 -1895 83 -158 185 -287 320 -404 109 -94 566 -397 755
-500 30 -16 62 -36 71 -43 8 -8 18 -14 22 -14 3 0 53 -27 111 -60 174 -99 561
-286 786 -380 250 -105 745 -278 871 -305 9 -2 47 -12 85 -24 76 -22 339 -87
393 -96 19 -3 37 -8 41 -10 4 -2 33 -9 66 -14 32 -6 106 -19 164 -30 58 -11
125 -22 150 -26 25 -3 52 -8 60 -10 8 -2 44 -7 80 -10 36 -4 74 -9 85 -11 28
-6 253 -31 350 -39 44 -3 100 -8 125 -10 203 -18 666 -24 960 -11 224 9 297
15 560 41 41 4 89 9 105 10 32 3 183 23 225 30 14 2 48 7 75 10 67 9 278 43
375 61 14 2 40 7 59 10 19 3 109 21 200 40 91 19 180 37 196 40 42 8 353 82
390 93 17 5 84 23 150 40 458 115 1180 347 1830 589 44 16 114 42 155 56 41
15 84 31 95 36 11 5 108 43 215 84 214 82 693 271 725 286 11 5 72 30 135 56
141 56 517 209 780 316 219 89 1059 423 1105 440 17 5 44 16 60 24 17 7 93 36
170 64 77 29 158 59 180 67 298 113 939 332 1165 398 361 105 691 196 805 220
11 2 90 20 175 39 85 19 171 38 190 41 19 3 42 8 50 10 8 2 26 6 40 9 14 2 63
11 110 20 200 37 253 45 490 76 265 35 324 40 610 57 275 16 826 4 1025 -21
22 -3 65 -8 95 -11 30 -3 66 -8 80 -10 14 -2 50 -7 80 -10 30 -4 64 -9 75 -11
11 -2 38 -6 60 -9 22 -3 76 -12 120 -21 516 -98 977 -242 1473 -460 251 -110
723 -365 950 -512 31 -20 65 -41 75 -47 19 -11 306 -205 322 -217 6 -5 105
-78 220 -163 249 -183 376 -252 565 -306 52 -15 45 -13 90 -22 70 -14 80 -16
142 -23 402 -44 820 104 1111 393 78 77 187 212 187 231 0 6 3 12 8 14 10 4
46 69 88 158 126 266 161 589 93 880 -21 93 -66 229 -80 245 -5 5 -9 15 -9 23
0 8 -10 28 -22 45 -13 18 -21 33 -18 35 15 7 -147 227 -230 312 -143 147 -649
515 -1055 769 -16 11 -57 36 -90 57 -63 40 -445 264 -450 264 -1 0 -40 21 -86
46 -311 173 -783 392 -1129 524 -74 28 -144 55 -155 60 -40 18 -353 122 -515
171 -246 75 -579 160 -805 205 -98 19 -125 24 -155 29 -19 3 -55 10 -80 15
-25 5 -61 12 -80 14 -19 3 -44 8 -56 10 -12 2 -45 7 -75 11 -30 3 -61 8 -69
10 -8 2 -40 7 -70 10 -30 3 -62 8 -70 10 -8 2 -46 6 -83 10 -37 3 -76 8 -85
10 -9 1 -55 6 -102 9 -47 4 -96 9 -110 11 -14 2 -74 7 -135 11 -60 3 -128 8
-150 10 -49 5 -842 14 -847 9z"/>
<path d="M17177 9674 c-1 -1 -76 -5 -167 -8 -193 -8 -301 -16 -455 -31 -22 -2
-69 -7 -104 -10 -36 -3 -79 -8 -95 -10 -17 -2 -58 -7 -91 -10 -67 -7 -102 -11
-160 -19 -22 -3 -60 -8 -85 -11 -25 -3 -70 -10 -100 -15 -30 -5 -77 -12 -105
-15 -27 -4 -81 -13 -120 -20 -38 -8 -88 -17 -110 -20 -23 -3 -52 -8 -65 -10
-14 -3 -41 -8 -60 -11 -19 -3 -37 -7 -40 -9 -3 -2 -24 -6 -46 -9 -47 -7 -42
-7 -204 -41 -167 -35 -162 -34 -185 -39 -11 -2 -38 -9 -60 -14 -22 -6 -52 -13
-67 -16 -46 -8 -464 -115 -618 -158 -317 -88 -747 -222 -1010 -313 -126 -43
-171 -58 -180 -60 -3 0 -25 -8 -50 -18 -25 -9 -171 -62 -325 -118 -359 -130
-411 -149 -520 -192 -49 -19 -112 -43 -140 -53 -27 -9 -54 -20 -60 -24 -5 -4
-32 -15 -60 -25 -62 -22 -779 -308 -1010 -403 -93 -38 -262 -106 -375 -152
-113 -45 -232 -93 -265 -107 -33 -14 -78 -32 -100 -41 -22 -8 -58 -23 -80 -33
-213 -90 -1021 -403 -1360 -526 -427 -155 -921 -315 -1245 -403 -63 -17 -137
-37 -165 -45 -40 -12 -182 -47 -287 -71 -10 -2 -26 -6 -35 -8 -156 -37 -483
-103 -553 -111 -25 -3 -70 -10 -100 -15 -64 -11 -180 -28 -248 -35 -26 -3 -58
-7 -72 -10 -14 -2 -61 -7 -105 -11 -44 -3 -96 -8 -115 -9 -288 -27 -806 -23
-1070 10 -25 3 -65 8 -90 10 -56 7 -108 14 -140 20 -13 3 -42 7 -65 10 -192
27 -548 118 -805 205 -262 89 -623 252 -870 393 -179 101 -284 167 -475 295
-271 183 -457 261 -695 290 -113 14 -341 7 -430 -13 -14 -3 -37 -7 -51 -10
-14 -3 -73 -20 -131 -39 -491 -161 -856 -600 -929 -1120 -11 -78 -14 -284 -5
-336 2 -14 7 -47 10 -75 42 -307 239 -644 496 -850 89 -71 527 -365 545 -365
2 0 24 -13 48 -29 84 -58 404 -234 607 -336 489 -245 898 -404 1435 -557 129
-37 165 -46 235 -62 14 -3 43 -10 65 -15 125 -31 360 -79 465 -95 19 -3 46 -8
60 -10 14 -3 61 -10 105 -16 44 -6 91 -13 105 -15 14 -2 52 -7 85 -11 33 -3
67 -8 76 -9 9 -2 52 -6 95 -10 43 -4 90 -8 104 -11 82 -13 312 -19 745 -19
429 0 600 5 735 20 19 2 67 7 105 10 63 5 178 18 275 30 77 10 267 36 290 40
45 7 104 16 132 20 15 2 54 9 87 15 34 6 73 13 88 16 16 2 53 9 83 15 30 6 66
12 80 15 14 2 36 7 50 10 14 3 34 8 45 10 11 1 31 5 45 8 70 12 380 84 570
133 356 90 764 210 1135 334 83 28 157 52 165 54 8 2 74 25 145 50 72 26 200
72 285 102 361 129 1252 473 1455 563 11 5 56 23 100 40 175 69 281 112 300
120 11 5 119 50 240 99 121 49 339 137 485 196 146 60 308 125 360 145 52 21
201 79 330 130 749 294 1417 525 2015 696 145 42 521 139 619 160 39 9 78 17
86 19 18 5 305 64 340 70 14 3 35 7 46 9 12 2 39 7 60 10 22 4 66 11 99 17 33
6 71 12 85 14 14 2 54 8 90 14 36 6 88 13 115 16 28 3 68 8 90 11 22 4 56 8
75 10 19 2 58 5 85 8 56 6 167 16 235 21 318 24 784 24 1040 0 19 -1 72 -6
116 -9 45 -4 93 -9 105 -11 13 -2 48 -6 78 -9 107 -12 238 -33 396 -62 210
-38 428 -93 715 -179 360 -109 885 -336 1255 -542 50 -28 113 -63 140 -78 167
-94 513 -318 703 -455 57 -41 113 -82 126 -90 12 -8 58 -42 101 -76 119 -90
191 -137 284 -184 88 -44 257 -103 325 -114 21 -3 41 -8 45 -10 16 -9 147 -19
252 -18 192 0 356 33 526 105 510 215 842 711 846 1262 1 62 -10 205 -18 245
-2 8 -6 31 -10 50 -6 37 -11 53 -45 160 -58 179 -181 377 -320 519 -54 55
-167 148 -291 240 -112 83 -208 155 -214 159 -24 19 -221 153 -340 232 -269
179 -509 324 -820 497 -71 39 -552 280 -610 306 -22 9 -114 49 -205 88 -91 40
-184 80 -207 90 -24 11 -49 19 -56 19 -7 0 -17 4 -22 9 -29 26 -604 222 -870
297 -76 21 -447 115 -475 120 -14 3 -53 11 -88 19 -34 8 -77 17 -95 20 -17 3
-63 12 -102 20 -79 16 -287 51 -355 60 -25 3 -56 8 -70 10 -14 3 -42 7 -64 10
-21 2 -55 7 -75 9 -202 27 -378 42 -696 62 -93 6 -752 13 -758 8z"/>
</g>
</svg>
